<svg xmlns="http://www.w3.org/2000/svg" xmlns:xlink="http://www.w3.org/1999/xlink" preserveAspectRatio="xMidYMid" width="165" height="12" viewBox="0 0 165 12">
  <defs>
    <style>

      .cls-4 {
        fill: #f1df1a;
      }

      .cls-10 {
        fill: #dedede;
      }
    </style>
  </defs>
  <g id="ratesvg">
    <g id="group-1">
      <path d="M7.535,4.261 C6.820,2.331 6.308,0.912 5.999,0.005 C5.999,0.005 4.511,4.261 4.511,4.261 C3.647,4.283 2.639,4.309 1.487,4.341 C0.591,4.373 0.100,4.389 0.015,4.389 C0.015,4.389 3.631,7.093 3.631,7.093 C2.788,9.920 2.362,11.365 2.351,11.429 C4.783,9.701 6.015,8.837 6.047,8.837 C6.047,8.837 9.759,11.381 9.759,11.381 C9.322,9.973 8.884,8.533 8.447,7.061 C10.036,5.845 11.226,4.933 12.015,4.325 C10.703,4.283 9.210,4.261 7.535,4.261 C7.535,4.261 7.535,4.261 7.535,4.261 Z" id="path-1" class="cls-4" fill-rule="evenodd"/>
      <path d="M24.535,4.261 C23.820,2.331 23.308,0.912 22.999,0.005 C22.999,0.005 21.511,4.261 21.511,4.261 C20.647,4.283 19.639,4.309 18.487,4.341 C17.591,4.373 17.100,4.389 17.015,4.389 C17.015,4.389 20.631,7.093 20.631,7.093 C19.788,9.920 19.362,11.365 19.351,11.429 C21.783,9.701 23.015,8.837 23.047,8.837 C23.047,8.837 26.759,11.381 26.759,11.381 C26.322,9.973 25.884,8.533 25.447,7.061 C27.036,5.845 28.226,4.933 29.015,4.325 C27.703,4.283 26.210,4.261 24.535,4.261 C24.535,4.261 24.535,4.261 24.535,4.261 Z" id="path-2" class="cls-4" fill-rule="evenodd"/>
      <path d="M41.535,4.261 C40.820,2.331 40.308,0.912 39.999,0.005 C39.999,0.005 38.511,4.261 38.511,4.261 C37.647,4.283 36.639,4.309 35.487,4.341 C34.591,4.373 34.100,4.389 34.015,4.389 C34.015,4.389 37.631,7.093 37.631,7.093 C36.788,9.920 36.362,11.365 36.351,11.429 C38.783,9.701 40.015,8.837 40.047,8.837 C40.047,8.837 43.759,11.381 43.759,11.381 C43.322,9.973 42.884,8.533 42.447,7.061 C44.036,5.845 45.226,4.933 46.015,4.325 C44.703,4.283 43.210,4.261 41.535,4.261 C41.535,4.261 41.535,4.261 41.535,4.261 Z" id="path-3" class="cls-4" fill-rule="evenodd"/>
      <path d="M58.535,4.261 C57.820,2.331 57.308,0.912 56.999,0.005 C56.999,0.005 55.511,4.261 55.511,4.261 C54.647,4.283 53.639,4.309 52.487,4.341 C51.591,4.373 51.100,4.389 51.015,4.389 C51.015,4.389 54.631,7.093 54.631,7.093 C53.788,9.920 53.362,11.365 53.351,11.429 C55.783,9.701 57.015,8.837 57.047,8.837 C57.047,8.837 60.759,11.381 60.759,11.381 C60.322,9.973 59.884,8.533 59.447,7.061 C61.036,5.845 62.226,4.933 63.015,4.325 C61.703,4.283 60.210,4.261 58.535,4.261 C58.535,4.261 58.535,4.261 58.535,4.261 Z" id="path-4" class="cls-4" fill-rule="evenodd"/>
      <path d="M75.535,4.261 C74.820,2.331 74.308,0.912 73.999,0.005 C73.999,0.005 72.511,4.261 72.511,4.261 C71.647,4.283 70.639,4.309 69.487,4.341 C68.591,4.373 68.100,4.389 68.015,4.389 C68.015,4.389 71.631,7.093 71.631,7.093 C70.788,9.920 70.362,11.365 70.351,11.429 C72.783,9.701 74.015,8.837 74.047,8.837 C74.047,8.837 77.759,11.381 77.759,11.381 C77.322,9.973 76.884,8.533 76.447,7.061 C78.036,5.845 79.226,4.933 80.015,4.325 C78.703,4.283 77.210,4.261 75.535,4.261 C75.535,4.261 75.535,4.261 75.535,4.261 Z" id="path-5" class="cls-4" fill-rule="evenodd"/>
    </g>
    <g id="group-1-copy">
      <path d="M92.535,4.261 C91.820,2.331 91.308,0.912 90.999,0.005 C90.999,0.005 89.511,4.261 89.511,4.261 C88.647,4.283 87.639,4.309 86.487,4.341 C85.591,4.373 85.100,4.389 85.015,4.389 C85.015,4.389 88.631,7.093 88.631,7.093 C87.788,9.920 87.362,11.365 87.351,11.429 C89.783,9.701 91.015,8.837 91.047,8.837 C91.047,8.837 94.759,11.381 94.759,11.381 C94.322,9.973 93.884,8.533 93.447,7.061 C95.036,5.845 96.226,4.933 97.015,4.325 C95.703,4.283 94.210,4.261 92.535,4.261 C92.535,4.261 92.535,4.261 92.535,4.261 Z" id="path-6" class="cls-10" fill-rule="evenodd"/>
      <path d="M109.535,4.261 C108.820,2.331 108.308,0.912 107.999,0.005 C107.999,0.005 106.511,4.261 106.511,4.261 C105.647,4.283 104.639,4.309 103.487,4.341 C102.591,4.373 102.100,4.389 102.015,4.389 C102.015,4.389 105.631,7.093 105.631,7.093 C104.788,9.920 104.362,11.365 104.351,11.429 C106.783,9.701 108.015,8.837 108.047,8.837 C108.047,8.837 111.759,11.381 111.759,11.381 C111.322,9.973 110.884,8.533 110.447,7.061 C112.036,5.845 113.226,4.933 114.015,4.325 C112.703,4.283 111.210,4.261 109.535,4.261 C109.535,4.261 109.535,4.261 109.535,4.261 Z" id="path-7" class="cls-10" fill-rule="evenodd"/>
      <path d="M126.535,4.261 C125.820,2.331 125.308,0.912 124.999,0.005 C124.999,0.005 123.511,4.261 123.511,4.261 C122.647,4.283 121.639,4.309 120.487,4.341 C119.591,4.373 119.100,4.389 119.015,4.389 C119.015,4.389 122.631,7.093 122.631,7.093 C121.788,9.920 121.362,11.365 121.351,11.429 C123.783,9.701 125.015,8.837 125.047,8.837 C125.047,8.837 128.759,11.381 128.759,11.381 C128.322,9.973 127.884,8.533 127.447,7.061 C129.036,5.845 130.226,4.933 131.015,4.325 C129.703,4.283 128.210,4.261 126.535,4.261 C126.535,4.261 126.535,4.261 126.535,4.261 Z" id="path-8" class="cls-10" fill-rule="evenodd"/>
      <path d="M143.535,4.261 C142.820,2.331 142.308,0.912 141.999,0.005 C141.999,0.005 140.511,4.261 140.511,4.261 C139.647,4.283 138.639,4.309 137.487,4.341 C136.591,4.373 136.100,4.389 136.015,4.389 C136.015,4.389 139.631,7.093 139.631,7.093 C138.788,9.920 138.362,11.365 138.351,11.429 C140.783,9.701 142.015,8.837 142.047,8.837 C142.047,8.837 145.759,11.381 145.759,11.381 C145.322,9.973 144.884,8.533 144.447,7.061 C146.036,5.845 147.226,4.933 148.015,4.325 C146.703,4.283 145.210,4.261 143.535,4.261 C143.535,4.261 143.535,4.261 143.535,4.261 Z" id="path-9" class="cls-10" fill-rule="evenodd"/>
      <path d="M160.535,4.261 C159.820,2.331 159.308,0.912 158.999,0.005 C158.999,0.005 157.511,4.261 157.511,4.261 C156.647,4.283 155.639,4.309 154.487,4.341 C153.591,4.373 153.100,4.389 153.015,4.389 C153.015,4.389 156.631,7.093 156.631,7.093 C155.788,9.920 155.362,11.365 155.351,11.429 C157.783,9.701 159.015,8.837 159.047,8.837 C159.047,8.837 162.759,11.381 162.759,11.381 C162.322,9.973 161.884,8.533 161.447,7.061 C163.036,5.845 164.226,4.933 165.015,4.325 C163.703,4.283 162.210,4.261 160.535,4.261 C160.535,4.261 160.535,4.261 160.535,4.261 Z" id="path-10" class="cls-10" fill-rule="evenodd"/>
    </g>
  </g>
</svg>
